<svg width="20" height="20" viewBox="0 0 20 20" fill="none" xmlns="http://www.w3.org/2000/svg">
<g clip-path="url(#clip0_42_11)">
<path d="M7.447 14.572C9.1768 14.572 10.8106 13.9588 12.1108 12.8434L18.4312 19.18C18.5482 19.2976 18.7024 19.3564 18.856 19.3564C19.009 19.3564 19.1626 19.2982 19.2796 19.1812C19.5142 18.9472 19.5148 18.5674 19.2808 18.3328L12.955 11.9914C15.3232 9.16303 15.1852 4.92763 12.532 2.26843C11.1736 0.906433 9.3676 0.156433 7.4464 0.156433C5.5252 0.156433 3.7192 0.906433 2.3608 2.26843C-0.4418 5.07823 -0.4418 9.65083 2.3608 12.4606C3.7198 13.822 5.5258 14.572 7.447 14.572ZM3.211 3.11563C4.3426 1.98103 5.8468 1.35643 7.447 1.35643C9.0472 1.35643 10.5514 1.98103 11.683 3.11563C14.02 5.45863 14.02 9.27043 11.683 11.6134C10.5514 12.748 9.0472 13.3726 7.447 13.3726C5.8468 13.3726 4.3426 12.748 3.211 11.6134C0.8746 9.27043 0.8746 5.45863 3.211 3.11563Z" fill="black"/>
</g>
<defs>
<clipPath id="clip0_42_11">
<rect width="20" height="20" fill="white"/>
</clipPath>
</defs>
</svg>
