<svg width="20" height="20" viewBox="0 0 20 20" fill="none" xmlns="http://www.w3.org/2000/svg">
<g clip-path="url(#clip0_286_15)">
<path d="M10.5164 19.9882C4.71781 19.9882 0 15.2708 0 9.47222C0 5.45614 2.23564 1.84774 5.83479 0.055526C5.99676 -0.0248291 6.19155 0.00630325 6.31902 0.133778C6.4465 0.261252 6.47931 0.456039 6.3998 0.617591C5.74307 1.95207 5.4103 3.38669 5.4103 4.88062C5.4103 10.2156 9.75031 14.5556 15.0853 14.5556C16.5956 14.5556 18.0441 14.2153 19.3917 13.5447C19.5541 13.4643 19.7484 13.4954 19.8759 13.6229C20.0038 13.7504 20.0362 13.9452 19.9567 14.1067C18.1729 17.7341 14.5552 19.9882 10.5164 19.9882ZM5.15282 1.41862C2.46619 3.20073 0.841414 6.18818 0.841414 9.47222C0.841414 14.8068 5.18143 19.1468 10.5164 19.1468C13.8207 19.1468 16.819 17.5069 18.5969 14.7954C17.4745 15.1951 16.2982 15.397 15.0857 15.397C9.28711 15.397 4.5693 10.6792 4.5693 4.88062C4.5693 3.68581 4.76535 2.52634 5.15282 1.41862Z" fill="white"/>
</g>
<defs>
<clipPath id="clip0_286_15">
<rect width="20" height="20" fill="white"/>
</clipPath>
</defs>
</svg>
