<svg width="20" height="20" viewBox="0 0 20 20" fill="none" xmlns="http://www.w3.org/2000/svg">
<g clip-path="url(#clip0_286_3)">
<path d="M7.44706 14.572C9.17686 14.572 10.8107 13.9588 12.1109 12.8434L18.4313 19.18C18.5483 19.2976 18.7025 19.3564 18.8561 19.3564C19.0091 19.3564 19.1627 19.2982 19.2797 19.1812C19.5143 18.9472 19.5149 18.5674 19.2809 18.3328L12.9551 11.9914C15.3233 9.16303 15.1853 4.92763 12.5321 2.26843C11.1737 0.906433 9.36766 0.156433 7.44646 0.156433C5.52526 0.156433 3.71926 0.906433 2.36086 2.26843C-0.441739 5.07823 -0.441739 9.65083 2.36086 12.4606C3.71986 13.822 5.52586 14.572 7.44706 14.572ZM3.21106 3.11563C4.34266 1.98103 5.84686 1.35643 7.44706 1.35643C9.04726 1.35643 10.5515 1.98103 11.6831 3.11563C14.0201 5.45863 14.0201 9.27043 11.6831 11.6134C10.5515 12.748 9.04726 13.3726 7.44706 13.3726C5.84686 13.3726 4.34266 12.748 3.21106 11.6134C0.874661 9.27043 0.874661 5.45863 3.21106 3.11563Z" fill="white"/>
</g>
<defs>
<clipPath id="clip0_286_3">
<rect width="20" height="20" fill="white"/>
</clipPath>
</defs>
</svg>
